<svg width="357" height="46" viewBox="0 0 357 46" fill="none" xmlns="http://www.w3.org/2000/svg">
<g filter="url(#filter0_d_2307_84)">
<path d="M4.064 36V30.576L31.568 7.44H6.128V1.68H44.624V7.104L17.072 30.288H46.112V36H4.064ZM90.6965 36H53.4485V1.68H88.6325V7.44H62.2805V15.456H78.7925V21.552H62.2805V30.288H90.6965V36Z" fill="white"/>
<path d="M137.827 7.968L132.931 11.52C128.755 7.968 124.003 6.048 116.275 6.048C110.083 6.048 105.571 7.296 105.571 10.464C105.571 13.584 110.131 13.68 120.019 14.64C131.779 15.792 139.699 17.28 139.699 25.296C139.699 34.032 130.291 37.2 118.579 37.2C106.674 37.2 99.6665 33.936 95.2505 28.752L100.099 25.152C104.562 29.088 109.843 31.584 118.723 31.584C125.203 31.584 129.859 30.24 129.859 26.4C129.859 22.464 124.771 22.8 114.835 21.888C103.555 20.784 95.9705 18.576 95.9705 11.424C95.9705 3.456 105.283 0.48 116.419 0.48C127.939 0.48 133.939 3.696 137.827 7.968ZM156.312 36H147.48V1.68H156.312V36ZM211.197 16.608V36H205.437V30.624H205.341C201.933 34.56 196.701 37.152 187.725 37.152C173.901 37.152 164.157 30.912 164.157 19.104C164.157 7.056 174.429 0.48 189.549 0.48C203.277 0.48 208.509 5.52 210.861 8.064L204.381 11.232C201.645 8.592 197.181 6.24 189.741 6.24C178.605 6.24 173.613 12.048 173.613 19.056C173.613 26.064 178.605 31.392 188.925 31.392C197.661 31.392 201.837 27.552 203.469 22.608H189.885V16.608H211.197ZM219.949 36V1.68H227.148L254.317 25.584V1.68H262.237V36H254.893L227.821 12.24V36H219.949ZM279.647 29.136L276.047 36H267.263L286.415 1.68H295.343L314.207 36H304.127L300.527 29.136H279.647ZM290.159 9.264L282.959 22.848H297.263L290.159 9.264ZM319.277 36V1.68H328.109V29.952H352.973V36H319.277Z" fill="#D0FF80"/>
</g>
<defs>
<filter id="filter0_d_2307_84" x="0.0640259" y="0.47998" width="356.909" height="44.72" filterUnits="userSpaceOnUse" color-interpolation-filters="sRGB">
<feFlood flood-opacity="0" result="BackgroundImageFix"/>
<feColorMatrix in="SourceAlpha" type="matrix" values="0 0 0 0 0 0 0 0 0 0 0 0 0 0 0 0 0 0 127 0" result="hardAlpha"/>
<feOffset dy="4"/>
<feGaussianBlur stdDeviation="2"/>
<feComposite in2="hardAlpha" operator="out"/>
<feColorMatrix type="matrix" values="0 0 0 0 1 0 0 0 0 1 0 0 0 0 1 0 0 0 0.25 0"/>
<feBlend mode="normal" in2="BackgroundImageFix" result="effect1_dropShadow_2307_84"/>
<feBlend mode="normal" in="SourceGraphic" in2="effect1_dropShadow_2307_84" result="shape"/>
</filter>
</defs>
</svg>
